<svg width="905" height="383" xmlns="http://www.w3.org/2000/svg" xmlns:xlink="http://www.w3.org/1999/xlink" xml:space="preserve" overflow="hidden"><defs><clipPath id="clip0"><rect x="169" y="152" width="905" height="383"/></clipPath></defs><g clip-path="url(#clip0)" transform="translate(-169 -152)"><path d="M3.33043 379.636 3.33043 79.231 12.256 79.231 12.256 370.777 138.912 370.744 138.912 379.67Z" fill="#1F396B" transform="matrix(1.00066 0 0 1 -205.731 152)"/><path d="M73.6692 247.218 74.1355 259.374 74.1355 314.193 309.064 314.659 308.631 287.017 284.819 233.13 186.138 233.297 186.138 214.28 138.912 214.28 138.912 183.64 90.9875 183.64 90.9875 233.43 89.289 233.43Z" fill="#1F396B" transform="matrix(1.00066 0 0 1 -205.731 152)"/><path d="M93.1856 179.71 136.281 179.71 136.281 161.459 129.054 161.459 129.054 144.008 127.189 144.008C127.689 142.243 127.989 140.345 127.989 138.38 127.989 130.553 123.526 124.059 117.531 122.527L117.531 79.2644 111.769 79.2644 111.769 122.66C106.008 124.325 101.645 130.753 101.645 138.38 101.645 140.378 101.911 142.243 102.444 144.008L100.246 144.008 100.246 161.459 93.2189 161.459 93.2189 179.71Z" fill="#1F396B" transform="matrix(1.00066 0 0 1 -205.731 152)"/><path d="M309.098 79.2644 309.098 152.134 300.172 152.134 300.172 120.162 245.653 120.162 245.653 152.134 236.727 152.134 236.727 79.2644 245.653 79.2644 245.653 111.27 300.172 111.27 300.172 79.2644Z" fill="#1F396B" transform="matrix(1.00066 0 0 1 -205.731 152)"/><path d="M618.262 104.842 538.298 104.842C540.829 81.2293 556.715 64.2108 578.93 64.2108 600.944 64.2108 615.897 81.2293 618.262 104.842Z" fill="#1F396B" transform="matrix(1.00066 0 0 1 -205.731 152)"/><path d="M859.585 64.4106C836.439 64.4106 820.419 84.2267 820.419 111.436 820.419 138.679 836.439 158.495 859.585 158.495 882.732 158.495 900.383 138.879 900.383 111.436 900.383 84.2267 882.698 64.4106 859.585 64.4106Z" fill="#1F396B" transform="matrix(1.00066 0 0 1 -205.731 152)"/><path d="M1047.36 64.2108C1025.14 64.2108 1009.29 81.196 1006.76 104.842L1086.72 104.842C1084.32 81.2293 1069.4 64.2108 1047.36 64.2108Z" fill="#1F396B" transform="matrix(1.00066 0 0 1 -205.731 152)"/><path d="M986.908 294.943 1033.27 294.943 1010.12 230.966Z" fill="#1F396B" transform="matrix(1.00066 0 0 1 -205.731 152)"/><path d="M1139.97 3.29713 3.33043 3.33043 3.33043 12.256 370.744 12.256 370.744 370.744 186.138 370.744 186.138 379.67 379.636 379.67 379.636 379.67 1275.52 379.67 1275.52 9.49174C1275.52 6.0947 1272.79 3.36374 1269.4 3.36374L1139.97 3.29713ZM1047.36 54.1862C1078.13 54.1862 1097.44 79.231 1096.91 114.833L1006.56 114.833C1007.66 142.043 1024.77 158.462 1048.09 158.462 1063.94 158.462 1077.43 151.035 1084.16 136.648L1094.18 136.648C1085.95 158.062 1067.94 168.653 1047.92 168.653 1018.41 168.653 996.733 145.84 996.733 111.803 996.699 78.2319 1018.01 54.1862 1047.36 54.1862ZM718.608 12.3559C723.171 12.3559 726.434 15.9528 726.434 20.5821L710.948 20.5821C710.948 15.9861 714.412 12.3559 718.608 12.3559ZM723.537 56.4176 723.537 166.488 713.879 166.488 713.879 56.4176 723.537 56.4176ZM389.328 12.3559 389.328 156.264 454.171 156.264 454.171 166.455 383.266 166.455 379.67 166.455 379.67 166.455 379.67 12.3559 379.67 12.3559 389.328 12.3559ZM530.072 370.744 494.003 370.744 494.003 297.674 415.705 297.674 415.705 370.744 379.67 370.744 379.67 370.777 379.67 370.777 379.67 194.431 379.67 194.431 383.266 194.431 415.738 194.431 415.738 263.437 494.037 263.437 494.037 194.431 530.105 194.431 530.105 370.744ZM528.274 111.836C528.274 78.1986 549.588 54.1862 578.93 54.1862 609.703 54.1862 629.019 79.231 628.453 114.833L538.098 114.833C539.197 142.043 556.316 158.462 579.629 158.462 595.482 158.462 608.97 151.035 615.697 136.648L625.722 136.648C617.529 158.062 599.478 168.653 579.462 168.653 549.955 168.687 528.274 145.873 528.274 111.836ZM677.344 370.011 641.342 370.011 641.342 347.797C630.784 362.584 616.464 370.011 598.512 370.011 583.259 370.011 571.203 365.082 562.377 355.257 553.585 345.433 549.122 332.111 549.122 315.292L549.122 232.165 585.191 232.165 585.191 307.499C585.191 316.924 587.156 323.985 591.119 328.681 595.016 333.377 601.543 335.675 610.635 335.675 620.527 335.675 628.12 332.777 633.415 326.849 638.677 320.987 641.342 312.461 641.342 301.171L641.342 232.165 677.344 232.165 677.344 370.011ZM907.077 370.744 871.075 370.744 871.075 290.913C871.075 281.821 869.177 274.994 865.347 270.398 861.583 265.769 855.522 263.471 847.129 263.471 837.704 263.471 830.577 266.435 825.748 272.43 820.852 278.358 818.388 286.884 818.388 297.974L818.388 370.744 782.419 370.744 782.419 290.913C782.419 281.821 780.554 274.994 776.724 270.398 772.961 265.769 766.899 263.471 758.473 263.471 749.081 263.471 741.854 266.435 736.959 272.43 731.963 278.358 729.498 286.884 729.498 297.974L729.765 370.744 693.496 370.744 693.496 232.165 729.765 232.165 729.765 250.582C739.856 236.328 753.511 229.134 770.796 229.134 790.978 229.134 804.966 237.893 812.893 255.378 823.583 237.893 839.07 229.134 859.252 229.134 873.973 229.134 885.696 233.996 894.222 243.521 902.814 253.08 907.077 266.268 907.077 283.087L907.077 370.744ZM910.041 166.488 900.383 166.488 900.383 140.078C892.357 157.296 877.237 168.687 858.286 168.687 830.244 168.687 810.761 144.474 810.761 111.436 810.761 78.3984 830.444 54.1862 858.12 54.1862 877.237 54.1862 892.357 65.5763 900.383 82.7946L900.383 12.3559 910.041 12.3559 910.041 166.488ZM1060.71 370.744 1045.66 329.18 974.618 329.18 959.465 370.744 921.465 370.744 987.441 194.431 1032.97 194.431 1098.98 370.744 1060.71 370.744ZM1266.46 370.744 1224.97 370.744 1151.63 252.613 1151.63 370.744 1115.66 370.744 1115.66 194.431 1156.96 194.431 1230.5 312.495 1230.5 231.765 1266.5 231.765 1266.5 370.744ZM1230.2 194.464 1266.23 194.464C1266.23 204.422 1258.17 212.482 1248.21 212.482 1238.26 212.482 1230.2 204.389 1230.2 194.464ZM1266.46 166.488 1256.81 166.488 1256.81 97.8482C1256.81 75.6342 1246.05 64.4106 1228.4 64.4106 1205.08 64.4106 1191.96 83.4274 1191.96 110.837L1191.96 166.488 1182.3 166.488 1182.3 56.4176 1191.96 56.4176 1191.96 82.2284C1198.36 65.6096 1210.75 54.1862 1230.4 54.1862 1252.98 54.1862 1266.46 69.4063 1266.46 96.4161L1266.46 166.488Z" fill="#1F396B" transform="matrix(1.00066 0 0 1 -205.731 152)"/></g></svg>