<?xml version="1.0" encoding="UTF-8"?>
<svg xmlns="http://www.w3.org/2000/svg" xmlns:xlink="http://www.w3.org/1999/xlink" width="271px" height="115px" viewBox="0 0 271 115" version="1.1">
<g id="surface1">
<path style=" stroke:none;fill-rule:nonzero;fill:rgb(12.156863%,22.352941%,41.960784%);fill-opacity:1;" d="M 73.046875 31.480469 L 49.085938 31.480469 C 49.84375 24.390625 54.605469 19.28125 61.261719 19.28125 C 67.859375 19.28125 72.339844 24.390625 73.046875 31.480469 Z M 73.046875 31.480469 "/>
<path style=" stroke:none;fill-rule:nonzero;fill:rgb(12.156863%,22.352941%,41.960784%);fill-opacity:1;" d="M 145.359375 19.339844 C 138.421875 19.339844 133.621094 25.289062 133.621094 33.460938 C 133.621094 41.640625 138.421875 47.589844 145.359375 47.589844 C 152.292969 47.589844 157.582031 41.699219 157.582031 33.460938 C 157.582031 25.289062 152.285156 19.339844 145.359375 19.339844 Z M 145.359375 19.339844 "/>
<path style=" stroke:none;fill-rule:nonzero;fill:rgb(12.156863%,22.352941%,41.960784%);fill-opacity:1;" d="M 201.625 19.28125 C 194.964844 19.28125 190.214844 24.378906 189.457031 31.480469 L 213.417969 31.480469 C 212.699219 24.390625 208.226562 19.28125 201.625 19.28125 Z M 201.625 19.28125 "/>
<path style=" stroke:none;fill-rule:nonzero;fill:rgb(12.156863%,22.352941%,41.960784%);fill-opacity:1;" d="M 183.511719 88.558594 L 197.402344 88.558594 L 190.464844 69.351562 Z M 183.511719 88.558594 "/>
<path style=" stroke:none;fill-rule:nonzero;fill:rgb(12.156863%,22.352941%,41.960784%);fill-opacity:1;" d="M 229.375 0.988281 L -111.214844 1 L -111.214844 3.679688 L -1.121094 3.679688 L -1.121094 111.320312 L -56.4375 111.320312 L -56.4375 114 L 269.992188 114 L 269.992188 2.851562 C 269.992188 1.828125 269.171875 1.011719 268.15625 1.011719 Z M 201.625 16.269531 C 210.84375 16.269531 216.628906 23.789062 216.472656 34.480469 L 189.398438 34.480469 C 189.726562 42.648438 194.855469 47.578125 201.84375 47.578125 C 206.59375 47.578125 210.632812 45.351562 212.652344 41.03125 L 215.652344 41.03125 C 213.1875 47.460938 207.789062 50.640625 201.792969 50.640625 C 192.949219 50.640625 186.453125 43.789062 186.453125 33.570312 C 186.445312 23.488281 192.828125 16.269531 201.625 16.269531 Z M 103.113281 3.710938 C 104.480469 3.710938 105.460938 4.789062 105.460938 6.179688 L 100.820312 6.179688 C 100.820312 4.800781 101.859375 3.710938 103.113281 3.710938 Z M 104.59375 16.941406 L 104.59375 49.988281 L 101.699219 49.988281 L 101.699219 16.941406 Z M 4.449219 3.710938 L 4.449219 46.921875 L 23.878906 46.921875 L 23.878906 49.980469 L 1.554688 49.980469 L 1.554688 3.710938 Z M 46.621094 111.320312 L 35.8125 111.320312 L 35.8125 89.378906 L 12.351562 89.378906 L 12.351562 111.320312 L 1.554688 111.320312 L 1.554688 111.328125 L 1.554688 58.378906 L 12.363281 58.378906 L 12.363281 79.101562 L 35.824219 79.101562 L 35.824219 58.378906 L 46.632812 58.378906 L 46.632812 111.320312 Z M 46.082031 33.578125 C 46.082031 23.480469 52.46875 16.269531 61.261719 16.269531 C 70.480469 16.269531 76.269531 23.789062 76.101562 34.480469 L 49.027344 34.480469 C 49.355469 42.648438 54.484375 47.578125 61.472656 47.578125 C 66.222656 47.578125 70.261719 45.351562 72.277344 41.03125 L 75.28125 41.03125 C 72.828125 47.460938 67.417969 50.640625 61.421875 50.640625 C 52.578125 50.648438 46.082031 43.800781 46.082031 33.578125 Z M 90.75 111.101562 L 79.960938 111.101562 L 79.960938 104.429688 C 76.800781 108.871094 72.507812 111.101562 67.128906 111.101562 C 62.558594 111.101562 58.945312 109.621094 56.300781 106.667969 C 53.667969 103.71875 52.328125 99.71875 52.328125 94.667969 L 52.328125 69.710938 L 63.136719 69.710938 L 63.136719 92.328125 C 63.136719 95.160156 63.726562 97.28125 64.914062 98.691406 C 66.082031 100.101562 68.039062 100.789062 70.761719 100.789062 C 73.726562 100.789062 76 99.921875 77.585938 98.140625 C 79.164062 96.378906 79.960938 93.820312 79.960938 90.429688 L 79.960938 69.710938 L 90.75 69.710938 Z M 159.589844 111.320312 L 148.800781 111.320312 L 148.800781 87.351562 C 148.800781 84.621094 148.230469 82.570312 147.085938 81.191406 C 145.957031 79.800781 144.140625 79.109375 141.625 79.109375 C 138.800781 79.109375 136.667969 80 135.21875 81.800781 C 133.753906 83.582031 133.015625 86.140625 133.015625 89.46875 L 133.015625 111.320312 L 122.234375 111.320312 L 122.234375 87.351562 C 122.234375 84.621094 121.675781 82.570312 120.53125 81.191406 C 119.402344 79.800781 117.585938 79.109375 115.058594 79.109375 C 112.246094 79.109375 110.082031 80 108.613281 81.800781 C 107.117188 83.582031 106.378906 86.140625 106.378906 89.46875 L 106.457031 111.320312 L 95.589844 111.320312 L 95.589844 69.710938 L 106.457031 69.710938 L 106.457031 75.238281 C 109.480469 70.960938 113.574219 68.800781 118.753906 68.800781 C 124.800781 68.800781 128.992188 71.429688 131.367188 76.679688 C 134.570312 71.429688 139.210938 68.800781 145.257812 68.800781 C 149.667969 68.800781 153.183594 70.261719 155.738281 73.121094 C 158.3125 75.988281 159.589844 79.949219 159.589844 85 Z M 160.476562 49.988281 L 157.582031 49.988281 L 157.582031 42.058594 C 155.179688 47.230469 150.648438 50.648438 144.96875 50.648438 C 136.566406 50.648438 130.726562 43.378906 130.726562 33.460938 C 130.726562 23.539062 136.625 16.269531 144.917969 16.269531 C 150.648438 16.269531 155.179688 19.691406 157.582031 24.859375 L 157.582031 3.710938 L 160.476562 3.710938 Z M 205.625 111.320312 L 201.113281 98.839844 L 179.828125 98.839844 L 175.285156 111.320312 L 163.898438 111.320312 L 183.667969 58.378906 L 197.3125 58.378906 L 217.089844 111.320312 Z M 267.277344 111.320312 L 254.84375 111.320312 L 232.867188 75.851562 L 232.867188 111.320312 L 222.089844 111.320312 L 222.089844 58.378906 L 234.464844 58.378906 L 256.5 93.832031 L 256.5 69.589844 L 267.289062 69.589844 L 267.289062 111.320312 Z M 256.410156 58.390625 L 267.207031 58.390625 C 267.207031 61.378906 264.792969 63.800781 261.808594 63.800781 C 258.828125 63.800781 256.410156 61.371094 256.410156 58.390625 Z M 267.277344 49.988281 L 264.382812 49.988281 L 264.382812 29.378906 C 264.382812 22.710938 261.160156 19.339844 255.871094 19.339844 C 248.882812 19.339844 244.953125 25.050781 244.953125 33.28125 L 244.953125 49.988281 L 242.058594 49.988281 L 242.058594 16.941406 L 244.953125 16.941406 L 244.953125 24.691406 C 246.871094 19.699219 250.582031 16.269531 256.472656 16.269531 C 263.238281 16.269531 267.277344 20.839844 267.277344 28.949219 Z M 267.277344 49.988281 "/>
</g>
</svg>
