<?xml version="1.0" encoding="UTF-8" standalone="no"?>
<svg
   width="271.06836"
   height="115.66833"
   viewBox="0 0 272.06861 115.66833"
   version="1.1"
   id="svg5"
   sodipodi:docname="logo.svg"
   inkscape:version="1.3.2 (091e20ef0f, 2023-11-25)"
   xmlns:inkscape="http://www.inkscape.org/namespaces/inkscape"
   xmlns:sodipodi="http://sodipodi.sourceforge.net/DTD/sodipodi-0.dtd"
   xmlns="http://www.w3.org/2000/svg"
   xmlns:svg="http://www.w3.org/2000/svg">
  <sodipodi:namedview
     id="namedview1"
     pagecolor="#505050"
     bordercolor="#eeeeee"
     borderopacity="1"
     inkscape:showpageshadow="0"
     inkscape:pageopacity="0"
     inkscape:pagecheckerboard="0"
     inkscape:deskcolor="#505050"
     inkscape:zoom="2.0403165"
     inkscape:cx="135.51819"
     inkscape:cy="57.834164"
     inkscape:window-width="2040"
     inkscape:window-height="1237"
     inkscape:window-x="10"
     inkscape:window-y="54"
     inkscape:window-maximized="0"
     inkscape:current-layer="svg5" />
  <defs
     id="defs5" />
  <path
     style="font-size:74.942px;font-family:'Inclusive Sans';-inkscape-font-specification:'Inclusive Sans';letter-spacing:9.88635px;fill:#fffefa;fill-opacity:1;stroke-width:1.0037"
     d="M 0.41651711,53.146528 V 0.68712689 H 7.0114132 V 47.151168 H 31.21768 v 5.99536 z M 64.261121,54.120774 q -4.721346,0 -8.768214,-2.323202 -4.046868,-2.398144 -6.519954,-6.819722 -2.473086,-4.421578 -2.473086,-10.416938 0,-6.145244 2.473086,-10.566822 2.473086,-4.421578 6.519954,-6.819722 4.046868,-2.398144 8.768214,-2.398144 4.796288,0 8.61833,2.023434 3.896985,1.948492 6.145245,6.145244 2.323202,4.12181 2.323202,10.641764 v 2.323202 H 52.720053 q 0.299768,5.395824 3.147564,8.99304 2.847796,3.522274 8.24362,3.522274 3.37239,0 6.145244,-1.573782 2.772854,-1.573782 4.346637,-4.421578 l 5.545708,2.24826 q -4.646404,9.442692 -15.887705,9.442692 z M 64.111237,20.471816 q -4.571462,0 -7.344316,2.847796 -2.697912,2.772854 -3.597216,7.044548 H 75.05277 q 0,-2.098376 -1.274015,-4.346636 -1.199072,-2.323202 -3.597216,-3.896984 -2.398144,-1.648724 -6.070302,-1.648724 z M 104.79877,8.5560371 q -1.79861,0 -3.14756,-1.2740141 -1.27402,-1.348956 -1.27402,-3.072622 0,-1.798608 1.27402,-3.0726221 1.34895,-1.34895602 3.14756,-1.34895602 1.72367,0 2.99768,1.34895602 1.27402,1.2740141 1.27402,3.0726221 0,1.723666 -1.27402,3.072622 -1.27401,1.2740141 -2.99768,1.2740141 z m -3.22251,44.5904909 v -37.471 h 6.29513 v 37.471 z m 43.76016,0.899304 q -4.87123,0 -8.76821,-2.24826 -3.82204,-2.323202 -5.99536,-6.669838 -2.17332,-4.421578 -2.17332,-10.716706 0,-6.145244 2.09838,-10.49188 2.09837,-4.421578 5.84547,-6.74478 3.7471,-2.398144 8.61833,-2.398144 2.62297,0 5.09606,0.974246 2.54803,0.899304 4.42158,2.697912 1.94849,1.798608 2.69791,4.421578 V -0.21217712 h 6.29513 V 43.703836 q 0,2.24826 0.97424,3.222506 0.97425,0.899304 3.7471,0.299768 v 5.096056 q -0.74942,0.449652 -1.64872,0.674478 -0.82436,0.224826 -2.24826,0.224826 -2.92274,0 -4.87123,-1.723666 -1.94849,-1.723666 -1.94849,-5.695592 -0.82437,2.023434 -2.39815,3.971926 -1.57378,1.87355 -4.04687,3.072622 -2.39814,1.199072 -5.69559,1.199072 z m 0.29977,-5.62065 q 5.54571,0 8.46845,-3.896984 2.99768,-3.971926 2.99768,-10.11717 0,-3.822042 -1.34896,-6.969606 -1.27401,-3.222506 -3.82204,-5.096056 -2.47309,-1.87355 -6.0703,-1.87355 -3.7471,0 -6.29513,1.948492 -2.47309,1.87355 -3.67216,5.096056 -1.19907,3.147564 -1.19907,7.044548 0,3.896984 1.19907,7.044548 1.19907,3.147564 3.59722,5.021114 2.47308,1.798608 6.14524,1.798608 z m 57.39964,5.695592 q -4.72135,0 -8.76822,-2.323202 -4.04686,-2.398144 -6.51995,-6.819722 -2.47309,-4.421578 -2.47309,-10.416938 0,-6.145244 2.47309,-10.566822 2.47309,-4.421578 6.51995,-6.819722 4.04687,-2.398144 8.76822,-2.398144 4.79629,0 8.61833,2.023434 3.89698,1.948492 6.14524,6.145244 2.32321,4.12181 2.32321,10.641764 v 2.323202 h -28.62785 q 0.29977,5.395824 3.14756,8.99304 2.8478,3.522274 8.24363,3.522274 3.37239,0 6.14524,-1.573782 2.77285,-1.573782 4.34664,-4.421578 l 5.5457,2.24826 q -4.6464,9.442692 -15.8877,9.442692 z m -0.14988,-33.648958 q -4.57147,0 -7.34432,2.847796 -2.69791,2.772854 -3.59722,7.044548 h 21.88307 q 0,-2.098376 -1.27402,-4.346636 -1.19907,-2.323202 -3.59721,-3.896984 -2.39815,-1.648724 -6.0703,-1.648724 z m 37.76479,32.674712 v -37.471 h 6.29513 v 7.044548 q 0.37471,-1.348956 1.72366,-3.222506 1.34896,-1.87355 3.97193,-3.297448 2.62297,-1.423898 6.81972,-1.423898 5.47077,0 8.99304,3.522274 3.59722,3.522274 3.59722,10.267054 v 24.580976 h -6.29513 V 29.464856 q 0,-4.87123 -2.3232,-6.894664 -2.32321,-2.098376 -6.07031,-2.098376 -5.17099,0 -7.79396,3.522274 -2.62297,3.522274 -2.62297,8.918098 v 20.23434 z"
     id="text5"
     aria-label="Leiden" />
  <path
     id="text1"
     style="font-style:normal;font-variant:normal;font-weight:800;font-stretch:normal;font-size:74.9422px;font-family:'Funnel Display';-inkscape-font-specification:'Funnel Display Ultra-Bold';letter-spacing:-2.70996px;word-spacing:0px;fill:#fffefa;fill-opacity:1;stroke-width:1.00369"
     d="M 0,64.608524 V 115.19489 H 11.74239 V 94.086038 H 35.099747 V 115.19489 H 46.840176 V 64.608524 H 35.099747 V 83.843302 H 11.74239 V 64.608524 Z m 187.78217,0 -21.29508,50.586366 h 11.67769 l 4.87143,-11.49146 h 20.79716 l 4.8087,11.49146 h 12.05212 L 199.64806,64.608524 Z m 35.57415,0 v 50.586366 h 11.24054 V 82.094686 h 0.24897 l 24.79428,33.100204 h 12.4285 V 84.762698 h -11.2425 V 98.64577 h -0.24896 L 235.28298,64.608524 Z m 37.46979,0 V 75.09042 h 11.2425 V 64.608524 Z M 123.23236,77.037029 c -3.20586,0 -5.89197,0.603946 -8.05697,1.811347 -2.12336,1.207401 -3.893,2.913758 -5.30858,5.120388 h -2.62292 V 77.723146 H 95.752422 V 88.96565 h 5.620268 v 26.22924 h 11.49147 V 95.148538 c 0,-2.664609 0.60395,-4.643256 1.81135,-5.933926 1.2074,-1.290669 3.01924,-1.934847 5.43404,-1.934847 4.99614,0 7.49435,2.622824 7.49435,7.868773 v 20.046352 h 11.49146 V 95.148538 c 0,-5.245949 2.45602,-7.868773 7.36889,-7.868773 4.91288,0 7.36889,2.622824 7.36889,7.868773 v 20.046352 h 11.49147 V 92.900037 c 0,-4.829604 -1.45713,-8.681416 -4.37154,-11.554198 -2.87278,-2.872781 -6.78592,-4.30881 -11.74043,-4.30881 -5.53739,0 -9.78415,1.997783 -12.7402,5.994696 h -0.25092 c -1.33231,-1.956822 -3.08086,-3.435043 -5.24585,-4.434271 -2.12336,-1.040863 -4.70399,-1.560425 -7.74331,-1.560425 z m 70.35828,0.188192 h 0.31169 l 6.80823,16.735355 H 186.72163 Z M 52.623155,77.723146 v 22.671244 c 0,4.78797 1.395797,8.57649 4.185309,11.366 2.789513,2.74788 6.869462,4.12258 12.240314,4.12258 3.580568,0 6.431529,-0.58481 8.554889,-1.75058 2.123361,-1.2074 3.956295,-2.93485 5.496772,-5.18311 h 2.622924 v 6.24561 H 97.21483 V 103.95435 H 91.592597 V 77.723146 H 80.10113 v 20.048316 c 0,2.539708 -0.707466,4.495298 -2.123039,5.869238 -1.415574,1.3323 -3.476644,1.99954 -6.182888,1.99954 -2.581339,0 -4.515833,-0.60395 -5.806503,-1.81135 -1.249036,-1.24904 -1.874078,-3.1433 -1.874078,-5.683005 V 77.723146 Z" />
</svg>
